<?xml version="1.0" encoding="utf-8" standalone="no"?>
<!DOCTYPE svg PUBLIC "-//W3C//DTD SVG 1.1//EN"
  "http://www.w3.org/Graphics/SVG/1.1/DTD/svg11.dtd">
<!-- Created with matplotlib (http://matplotlib.org/) -->
<svg height="265pt" version="1.1" viewBox="0 0 388 265" width="388pt" xmlns="http://www.w3.org/2000/svg" xmlns:xlink="http://www.w3.org/1999/xlink">
 <defs>
  <style type="text/css">
*{stroke-linecap:butt;stroke-linejoin:round;}
  </style>
 </defs>
 <g id="figure_1">
  <g id="patch_1">
   <path d="M 0 265.69625 
L 388.328125 265.69625 
L 388.328125 0 
L 0 0 
z
" style="fill:none;"/>
  </g>
  <g id="axes_1">
   <g id="patch_2">
    <path d="M 42.828125 228.14 
L 377.628125 228.14 
L 377.628125 10.7 
L 42.828125 10.7 
z
" style="fill:#ffffff;"/>
   </g>
   <g id="patch_3">
    <path clip-path="url(#pb8f256acba)" d="M 58.381115 228.14 
L 64.454996 228.14 
L 64.454996 21.054286 
L 58.381115 21.054286 
z
" style="fill:#ffa500;opacity:0.4;"/>
   </g>
   <g id="patch_4">
    <path clip-path="url(#pb8f256acba)" d="M 64.454996 228.14 
L 70.528876 228.14 
L 70.528876 228.14 
L 64.454996 228.14 
z
" style="fill:#ffa500;opacity:0.4;"/>
   </g>
   <g id="patch_5">
    <path clip-path="url(#pb8f256acba)" d="M 70.528876 228.14 
L 76.602756 228.14 
L 76.602756 228.14 
L 70.528876 228.14 
z
" style="fill:#ffa500;opacity:0.4;"/>
   </g>
   <g id="patch_6">
    <path clip-path="url(#pb8f256acba)" d="M 76.602756 228.14 
L 82.676637 228.14 
L 82.676637 228.14 
L 76.602756 228.14 
z
" style="fill:#ffa500;opacity:0.4;"/>
   </g>
   <g id="patch_7">
    <path clip-path="url(#pb8f256acba)" d="M 82.676637 228.14 
L 88.750517 228.14 
L 88.750517 228.14 
L 82.676637 228.14 
z
" style="fill:#ffa500;opacity:0.4;"/>
   </g>
   <g id="patch_8">
    <path clip-path="url(#pb8f256acba)" d="M 88.750517 228.14 
L 94.824398 228.14 
L 94.824398 228.14 
L 88.750517 228.14 
z
" style="fill:#ffa500;opacity:0.4;"/>
   </g>
   <g id="patch_9">
    <path clip-path="url(#pb8f256acba)" d="M 94.824398 228.14 
L 100.898278 228.14 
L 100.898278 228.14 
L 94.824398 228.14 
z
" style="fill:#ffa500;opacity:0.4;"/>
   </g>
   <g id="patch_10">
    <path clip-path="url(#pb8f256acba)" d="M 100.898278 228.14 
L 106.972158 228.14 
L 106.972158 228.14 
L 100.898278 228.14 
z
" style="fill:#ffa500;opacity:0.4;"/>
   </g>
   <g id="patch_11">
    <path clip-path="url(#pb8f256acba)" d="M 106.972158 228.14 
L 113.046039 228.14 
L 113.046039 228.14 
L 106.972158 228.14 
z
" style="fill:#ffa500;opacity:0.4;"/>
   </g>
   <g id="patch_12">
    <path clip-path="url(#pb8f256acba)" d="M 113.046039 228.14 
L 119.119919 228.14 
L 119.119919 228.14 
L 113.046039 228.14 
z
" style="fill:#ffa500;opacity:0.4;"/>
   </g>
   <g id="patch_13">
    <path clip-path="url(#pb8f256acba)" d="M 119.119919 228.14 
L 125.1938 228.14 
L 125.1938 228.14 
L 119.119919 228.14 
z
" style="fill:#ffa500;opacity:0.4;"/>
   </g>
   <g id="patch_14">
    <path clip-path="url(#pb8f256acba)" d="M 125.1938 228.14 
L 131.26768 228.14 
L 131.26768 228.14 
L 125.1938 228.14 
z
" style="fill:#ffa500;opacity:0.4;"/>
   </g>
   <g id="patch_15">
    <path clip-path="url(#pb8f256acba)" d="M 131.26768 228.14 
L 137.34156 228.14 
L 137.34156 228.14 
L 131.26768 228.14 
z
" style="fill:#ffa500;opacity:0.4;"/>
   </g>
   <g id="patch_16">
    <path clip-path="url(#pb8f256acba)" d="M 137.34156 228.14 
L 143.415441 228.14 
L 143.415441 228.14 
L 137.34156 228.14 
z
" style="fill:#ffa500;opacity:0.4;"/>
   </g>
   <g id="patch_17">
    <path clip-path="url(#pb8f256acba)" d="M 143.415441 228.14 
L 149.489321 228.14 
L 149.489321 228.14 
L 143.415441 228.14 
z
" style="fill:#ffa500;opacity:0.4;"/>
   </g>
   <g id="patch_18">
    <path clip-path="url(#pb8f256acba)" d="M 149.489321 228.14 
L 155.563202 228.14 
L 155.563202 228.14 
L 149.489321 228.14 
z
" style="fill:#ffa500;opacity:0.4;"/>
   </g>
   <g id="patch_19">
    <path clip-path="url(#pb8f256acba)" d="M 155.563202 228.14 
L 161.637082 228.14 
L 161.637082 228.14 
L 155.563202 228.14 
z
" style="fill:#ffa500;opacity:0.4;"/>
   </g>
   <g id="patch_20">
    <path clip-path="url(#pb8f256acba)" d="M 161.637082 228.14 
L 167.710962 228.14 
L 167.710962 228.14 
L 161.637082 228.14 
z
" style="fill:#ffa500;opacity:0.4;"/>
   </g>
   <g id="patch_21">
    <path clip-path="url(#pb8f256acba)" d="M 167.710962 228.14 
L 173.784843 228.14 
L 173.784843 228.14 
L 167.710962 228.14 
z
" style="fill:#ffa500;opacity:0.4;"/>
   </g>
   <g id="patch_22">
    <path clip-path="url(#pb8f256acba)" d="M 173.784843 228.14 
L 179.858723 228.14 
L 179.858723 228.14 
L 173.784843 228.14 
z
" style="fill:#ffa500;opacity:0.4;"/>
   </g>
   <g id="patch_23">
    <path clip-path="url(#pb8f256acba)" d="M 179.858723 228.14 
L 185.932603 228.14 
L 185.932603 228.14 
L 179.858723 228.14 
z
" style="fill:#ffa500;opacity:0.4;"/>
   </g>
   <g id="patch_24">
    <path clip-path="url(#pb8f256acba)" d="M 185.932603 228.14 
L 192.006484 228.14 
L 192.006484 228.14 
L 185.932603 228.14 
z
" style="fill:#ffa500;opacity:0.4;"/>
   </g>
   <g id="patch_25">
    <path clip-path="url(#pb8f256acba)" d="M 192.006484 228.14 
L 198.080364 228.14 
L 198.080364 228.14 
L 192.006484 228.14 
z
" style="fill:#ffa500;opacity:0.4;"/>
   </g>
   <g id="patch_26">
    <path clip-path="url(#pb8f256acba)" d="M 198.080364 228.14 
L 204.154245 228.14 
L 204.154245 228.14 
L 198.080364 228.14 
z
" style="fill:#ffa500;opacity:0.4;"/>
   </g>
   <g id="patch_27">
    <path clip-path="url(#pb8f256acba)" d="M 204.154245 228.14 
L 210.228125 228.14 
L 210.228125 228.14 
L 204.154245 228.14 
z
" style="fill:#ffa500;opacity:0.4;"/>
   </g>
   <g id="patch_28">
    <path clip-path="url(#pb8f256acba)" d="M 210.228125 228.14 
L 216.302005 228.14 
L 216.302005 228.14 
L 210.228125 228.14 
z
" style="fill:#ffa500;opacity:0.4;"/>
   </g>
   <g id="patch_29">
    <path clip-path="url(#pb8f256acba)" d="M 216.302005 228.14 
L 222.375886 228.14 
L 222.375886 228.14 
L 216.302005 228.14 
z
" style="fill:#ffa500;opacity:0.4;"/>
   </g>
   <g id="patch_30">
    <path clip-path="url(#pb8f256acba)" d="M 222.375886 228.14 
L 228.449766 228.14 
L 228.449766 228.14 
L 222.375886 228.14 
z
" style="fill:#ffa500;opacity:0.4;"/>
   </g>
   <g id="patch_31">
    <path clip-path="url(#pb8f256acba)" d="M 228.449766 228.14 
L 234.523647 228.14 
L 234.523647 228.14 
L 228.449766 228.14 
z
" style="fill:#ffa500;opacity:0.4;"/>
   </g>
   <g id="patch_32">
    <path clip-path="url(#pb8f256acba)" d="M 234.523647 228.14 
L 240.597527 228.14 
L 240.597527 228.14 
L 234.523647 228.14 
z
" style="fill:#ffa500;opacity:0.4;"/>
   </g>
   <g id="patch_33">
    <path clip-path="url(#pb8f256acba)" d="M 240.597527 228.14 
L 246.671407 228.14 
L 246.671407 228.14 
L 240.597527 228.14 
z
" style="fill:#ffa500;opacity:0.4;"/>
   </g>
   <g id="patch_34">
    <path clip-path="url(#pb8f256acba)" d="M 246.671407 228.14 
L 252.745288 228.14 
L 252.745288 228.14 
L 246.671407 228.14 
z
" style="fill:#ffa500;opacity:0.4;"/>
   </g>
   <g id="patch_35">
    <path clip-path="url(#pb8f256acba)" d="M 252.745288 228.14 
L 258.819168 228.14 
L 258.819168 228.14 
L 252.745288 228.14 
z
" style="fill:#ffa500;opacity:0.4;"/>
   </g>
   <g id="patch_36">
    <path clip-path="url(#pb8f256acba)" d="M 258.819168 228.14 
L 264.893048 228.14 
L 264.893048 228.14 
L 258.819168 228.14 
z
" style="fill:#ffa500;opacity:0.4;"/>
   </g>
   <g id="patch_37">
    <path clip-path="url(#pb8f256acba)" d="M 264.893048 228.14 
L 270.966929 228.14 
L 270.966929 228.14 
L 264.893048 228.14 
z
" style="fill:#ffa500;opacity:0.4;"/>
   </g>
   <g id="patch_38">
    <path clip-path="url(#pb8f256acba)" d="M 270.966929 228.14 
L 277.040809 228.14 
L 277.040809 228.14 
L 270.966929 228.14 
z
" style="fill:#ffa500;opacity:0.4;"/>
   </g>
   <g id="patch_39">
    <path clip-path="url(#pb8f256acba)" d="M 277.040809 228.14 
L 283.11469 228.14 
L 283.11469 228.14 
L 277.040809 228.14 
z
" style="fill:#ffa500;opacity:0.4;"/>
   </g>
   <g id="patch_40">
    <path clip-path="url(#pb8f256acba)" d="M 283.11469 228.14 
L 289.18857 228.14 
L 289.18857 228.14 
L 283.11469 228.14 
z
" style="fill:#ffa500;opacity:0.4;"/>
   </g>
   <g id="patch_41">
    <path clip-path="url(#pb8f256acba)" d="M 289.18857 228.14 
L 295.26245 228.14 
L 295.26245 228.14 
L 289.18857 228.14 
z
" style="fill:#ffa500;opacity:0.4;"/>
   </g>
   <g id="patch_42">
    <path clip-path="url(#pb8f256acba)" d="M 295.26245 228.14 
L 301.336331 228.14 
L 301.336331 228.14 
L 295.26245 228.14 
z
" style="fill:#ffa500;opacity:0.4;"/>
   </g>
   <g id="patch_43">
    <path clip-path="url(#pb8f256acba)" d="M 301.336331 228.14 
L 307.410211 228.14 
L 307.410211 228.14 
L 301.336331 228.14 
z
" style="fill:#ffa500;opacity:0.4;"/>
   </g>
   <g id="patch_44">
    <path clip-path="url(#pb8f256acba)" d="M 307.410211 228.14 
L 313.484092 228.14 
L 313.484092 220.470159 
L 307.410211 220.470159 
z
" style="fill:#ffa500;opacity:0.4;"/>
   </g>
   <g id="patch_45">
    <path clip-path="url(#pb8f256acba)" d="M 313.484092 228.14 
L 319.557972 228.14 
L 319.557972 228.14 
L 313.484092 228.14 
z
" style="fill:#ffa500;opacity:0.4;"/>
   </g>
   <g id="patch_46">
    <path clip-path="url(#pb8f256acba)" d="M 319.557972 228.14 
L 325.631852 228.14 
L 325.631852 228.14 
L 319.557972 228.14 
z
" style="fill:#ffa500;opacity:0.4;"/>
   </g>
   <g id="patch_47">
    <path clip-path="url(#pb8f256acba)" d="M 325.631852 228.14 
L 331.705733 228.14 
L 331.705733 228.14 
L 325.631852 228.14 
z
" style="fill:#ffa500;opacity:0.4;"/>
   </g>
   <g id="patch_48">
    <path clip-path="url(#pb8f256acba)" d="M 331.705733 228.14 
L 337.779613 228.14 
L 337.779613 228.14 
L 331.705733 228.14 
z
" style="fill:#ffa500;opacity:0.4;"/>
   </g>
   <g id="patch_49">
    <path clip-path="url(#pb8f256acba)" d="M 337.779613 228.14 
L 343.853494 228.14 
L 343.853494 228.14 
L 337.779613 228.14 
z
" style="fill:#ffa500;opacity:0.4;"/>
   </g>
   <g id="patch_50">
    <path clip-path="url(#pb8f256acba)" d="M 343.853494 228.14 
L 349.927374 228.14 
L 349.927374 228.14 
L 343.853494 228.14 
z
" style="fill:#ffa500;opacity:0.4;"/>
   </g>
   <g id="patch_51">
    <path clip-path="url(#pb8f256acba)" d="M 349.927374 228.14 
L 356.001254 228.14 
L 356.001254 228.14 
L 349.927374 228.14 
z
" style="fill:#ffa500;opacity:0.4;"/>
   </g>
   <g id="patch_52">
    <path clip-path="url(#pb8f256acba)" d="M 356.001254 228.14 
L 362.075135 228.14 
L 362.075135 220.470159 
L 356.001254 220.470159 
z
" style="fill:#ffa500;opacity:0.4;"/>
   </g>
   <g id="matplotlib.axis_1">
    <g id="xtick_1">
     <g id="line2d_1">
      <defs>
       <path d="M 0 0 
L 0 3.5 
" id="mbb967522f4" style="stroke:#000000;stroke-width:0.8;"/>
      </defs>
      <g>
       <use style="stroke:#000000;stroke-width:0.8;" x="58.458464" xlink:href="#mbb967522f4" y="228.14"/>
      </g>
     </g>
     <g id="text_1">
      <!-- 0 -->
      <defs>
       <path d="M 31.78125 66.40625 
Q 24.171875 66.40625 20.328125 58.90625 
Q 16.5 51.421875 16.5 36.375 
Q 16.5 21.390625 20.328125 13.890625 
Q 24.171875 6.390625 31.78125 6.390625 
Q 39.453125 6.390625 43.28125 13.890625 
Q 47.125 21.390625 47.125 36.375 
Q 47.125 51.421875 43.28125 58.90625 
Q 39.453125 66.40625 31.78125 66.40625 
z
M 31.78125 74.21875 
Q 44.046875 74.21875 50.515625 64.515625 
Q 56.984375 54.828125 56.984375 36.375 
Q 56.984375 17.96875 50.515625 8.265625 
Q 44.046875 -1.421875 31.78125 -1.421875 
Q 19.53125 -1.421875 13.0625 8.265625 
Q 6.59375 17.96875 6.59375 36.375 
Q 6.59375 54.828125 13.0625 64.515625 
Q 19.53125 74.21875 31.78125 74.21875 
z
" id="DejaVuSans-30"/>
      </defs>
      <g transform="translate(55.277214 242.738437)scale(0.1 -0.1)">
       <use xlink:href="#DejaVuSans-30"/>
      </g>
     </g>
    </g>
    <g id="xtick_2">
     <g id="line2d_2">
      <g>
       <use style="stroke:#000000;stroke-width:0.8;" x="102.581866" xlink:href="#mbb967522f4" y="228.14"/>
      </g>
     </g>
     <g id="text_2">
      <!-- 1000 -->
      <defs>
       <path d="M 12.40625 8.296875 
L 28.515625 8.296875 
L 28.515625 63.921875 
L 10.984375 60.40625 
L 10.984375 69.390625 
L 28.421875 72.90625 
L 38.28125 72.90625 
L 38.28125 8.296875 
L 54.390625 8.296875 
L 54.390625 0 
L 12.40625 0 
z
" id="DejaVuSans-31"/>
      </defs>
      <g transform="translate(89.856866 242.738437)scale(0.1 -0.1)">
       <use xlink:href="#DejaVuSans-31"/>
       <use x="63.623047" xlink:href="#DejaVuSans-30"/>
       <use x="127.246094" xlink:href="#DejaVuSans-30"/>
       <use x="190.869141" xlink:href="#DejaVuSans-30"/>
      </g>
     </g>
    </g>
    <g id="xtick_3">
     <g id="line2d_3">
      <g>
       <use style="stroke:#000000;stroke-width:0.8;" x="146.705267" xlink:href="#mbb967522f4" y="228.14"/>
      </g>
     </g>
     <g id="text_3">
      <!-- 2000 -->
      <defs>
       <path d="M 19.1875 8.296875 
L 53.609375 8.296875 
L 53.609375 0 
L 7.328125 0 
L 7.328125 8.296875 
Q 12.9375 14.109375 22.625 23.890625 
Q 32.328125 33.6875 34.8125 36.53125 
Q 39.546875 41.84375 41.421875 45.53125 
Q 43.3125 49.21875 43.3125 52.78125 
Q 43.3125 58.59375 39.234375 62.25 
Q 35.15625 65.921875 28.609375 65.921875 
Q 23.96875 65.921875 18.8125 64.3125 
Q 13.671875 62.703125 7.8125 59.421875 
L 7.8125 69.390625 
Q 13.765625 71.78125 18.9375 73 
Q 24.125 74.21875 28.421875 74.21875 
Q 39.75 74.21875 46.484375 68.546875 
Q 53.21875 62.890625 53.21875 53.421875 
Q 53.21875 48.921875 51.53125 44.890625 
Q 49.859375 40.875 45.40625 35.40625 
Q 44.1875 33.984375 37.640625 27.21875 
Q 31.109375 20.453125 19.1875 8.296875 
z
" id="DejaVuSans-32"/>
      </defs>
      <g transform="translate(133.980267 242.738437)scale(0.1 -0.1)">
       <use xlink:href="#DejaVuSans-32"/>
       <use x="63.623047" xlink:href="#DejaVuSans-30"/>
       <use x="127.246094" xlink:href="#DejaVuSans-30"/>
       <use x="190.869141" xlink:href="#DejaVuSans-30"/>
      </g>
     </g>
    </g>
    <g id="xtick_4">
     <g id="line2d_4">
      <g>
       <use style="stroke:#000000;stroke-width:0.8;" x="190.828669" xlink:href="#mbb967522f4" y="228.14"/>
      </g>
     </g>
     <g id="text_4">
      <!-- 3000 -->
      <defs>
       <path d="M 40.578125 39.3125 
Q 47.65625 37.796875 51.625 33 
Q 55.609375 28.21875 55.609375 21.1875 
Q 55.609375 10.40625 48.1875 4.484375 
Q 40.765625 -1.421875 27.09375 -1.421875 
Q 22.515625 -1.421875 17.65625 -0.515625 
Q 12.796875 0.390625 7.625 2.203125 
L 7.625 11.71875 
Q 11.71875 9.328125 16.59375 8.109375 
Q 21.484375 6.890625 26.8125 6.890625 
Q 36.078125 6.890625 40.9375 10.546875 
Q 45.796875 14.203125 45.796875 21.1875 
Q 45.796875 27.640625 41.28125 31.265625 
Q 36.765625 34.90625 28.71875 34.90625 
L 20.21875 34.90625 
L 20.21875 43.015625 
L 29.109375 43.015625 
Q 36.375 43.015625 40.234375 45.921875 
Q 44.09375 48.828125 44.09375 54.296875 
Q 44.09375 59.90625 40.109375 62.90625 
Q 36.140625 65.921875 28.71875 65.921875 
Q 24.65625 65.921875 20.015625 65.03125 
Q 15.375 64.15625 9.8125 62.3125 
L 9.8125 71.09375 
Q 15.4375 72.65625 20.34375 73.4375 
Q 25.25 74.21875 29.59375 74.21875 
Q 40.828125 74.21875 47.359375 69.109375 
Q 53.90625 64.015625 53.90625 55.328125 
Q 53.90625 49.265625 50.4375 45.09375 
Q 46.96875 40.921875 40.578125 39.3125 
z
" id="DejaVuSans-33"/>
      </defs>
      <g transform="translate(178.103669 242.738437)scale(0.1 -0.1)">
       <use xlink:href="#DejaVuSans-33"/>
       <use x="63.623047" xlink:href="#DejaVuSans-30"/>
       <use x="127.246094" xlink:href="#DejaVuSans-30"/>
       <use x="190.869141" xlink:href="#DejaVuSans-30"/>
      </g>
     </g>
    </g>
    <g id="xtick_5">
     <g id="line2d_5">
      <g>
       <use style="stroke:#000000;stroke-width:0.8;" x="234.952071" xlink:href="#mbb967522f4" y="228.14"/>
      </g>
     </g>
     <g id="text_5">
      <!-- 4000 -->
      <defs>
       <path d="M 37.796875 64.3125 
L 12.890625 25.390625 
L 37.796875 25.390625 
z
M 35.203125 72.90625 
L 47.609375 72.90625 
L 47.609375 25.390625 
L 58.015625 25.390625 
L 58.015625 17.1875 
L 47.609375 17.1875 
L 47.609375 0 
L 37.796875 0 
L 37.796875 17.1875 
L 4.890625 17.1875 
L 4.890625 26.703125 
z
" id="DejaVuSans-34"/>
      </defs>
      <g transform="translate(222.227071 242.738437)scale(0.1 -0.1)">
       <use xlink:href="#DejaVuSans-34"/>
       <use x="63.623047" xlink:href="#DejaVuSans-30"/>
       <use x="127.246094" xlink:href="#DejaVuSans-30"/>
       <use x="190.869141" xlink:href="#DejaVuSans-30"/>
      </g>
     </g>
    </g>
    <g id="xtick_6">
     <g id="line2d_6">
      <g>
       <use style="stroke:#000000;stroke-width:0.8;" x="279.075472" xlink:href="#mbb967522f4" y="228.14"/>
      </g>
     </g>
     <g id="text_6">
      <!-- 5000 -->
      <defs>
       <path d="M 10.796875 72.90625 
L 49.515625 72.90625 
L 49.515625 64.59375 
L 19.828125 64.59375 
L 19.828125 46.734375 
Q 21.96875 47.46875 24.109375 47.828125 
Q 26.265625 48.1875 28.421875 48.1875 
Q 40.625 48.1875 47.75 41.5 
Q 54.890625 34.8125 54.890625 23.390625 
Q 54.890625 11.625 47.5625 5.09375 
Q 40.234375 -1.421875 26.90625 -1.421875 
Q 22.3125 -1.421875 17.546875 -0.640625 
Q 12.796875 0.140625 7.71875 1.703125 
L 7.71875 11.625 
Q 12.109375 9.234375 16.796875 8.0625 
Q 21.484375 6.890625 26.703125 6.890625 
Q 35.15625 6.890625 40.078125 11.328125 
Q 45.015625 15.765625 45.015625 23.390625 
Q 45.015625 31 40.078125 35.4375 
Q 35.15625 39.890625 26.703125 39.890625 
Q 22.75 39.890625 18.8125 39.015625 
Q 14.890625 38.140625 10.796875 36.28125 
z
" id="DejaVuSans-35"/>
      </defs>
      <g transform="translate(266.350472 242.738437)scale(0.1 -0.1)">
       <use xlink:href="#DejaVuSans-35"/>
       <use x="63.623047" xlink:href="#DejaVuSans-30"/>
       <use x="127.246094" xlink:href="#DejaVuSans-30"/>
       <use x="190.869141" xlink:href="#DejaVuSans-30"/>
      </g>
     </g>
    </g>
    <g id="xtick_7">
     <g id="line2d_7">
      <g>
       <use style="stroke:#000000;stroke-width:0.8;" x="323.198874" xlink:href="#mbb967522f4" y="228.14"/>
      </g>
     </g>
     <g id="text_7">
      <!-- 6000 -->
      <defs>
       <path d="M 33.015625 40.375 
Q 26.375 40.375 22.484375 35.828125 
Q 18.609375 31.296875 18.609375 23.390625 
Q 18.609375 15.53125 22.484375 10.953125 
Q 26.375 6.390625 33.015625 6.390625 
Q 39.65625 6.390625 43.53125 10.953125 
Q 47.40625 15.53125 47.40625 23.390625 
Q 47.40625 31.296875 43.53125 35.828125 
Q 39.65625 40.375 33.015625 40.375 
z
M 52.59375 71.296875 
L 52.59375 62.3125 
Q 48.875 64.0625 45.09375 64.984375 
Q 41.3125 65.921875 37.59375 65.921875 
Q 27.828125 65.921875 22.671875 59.328125 
Q 17.53125 52.734375 16.796875 39.40625 
Q 19.671875 43.65625 24.015625 45.921875 
Q 28.375 48.1875 33.59375 48.1875 
Q 44.578125 48.1875 50.953125 41.515625 
Q 57.328125 34.859375 57.328125 23.390625 
Q 57.328125 12.15625 50.6875 5.359375 
Q 44.046875 -1.421875 33.015625 -1.421875 
Q 20.359375 -1.421875 13.671875 8.265625 
Q 6.984375 17.96875 6.984375 36.375 
Q 6.984375 53.65625 15.1875 63.9375 
Q 23.390625 74.21875 37.203125 74.21875 
Q 40.921875 74.21875 44.703125 73.484375 
Q 48.484375 72.75 52.59375 71.296875 
z
" id="DejaVuSans-36"/>
      </defs>
      <g transform="translate(310.473874 242.738437)scale(0.1 -0.1)">
       <use xlink:href="#DejaVuSans-36"/>
       <use x="63.623047" xlink:href="#DejaVuSans-30"/>
       <use x="127.246094" xlink:href="#DejaVuSans-30"/>
       <use x="190.869141" xlink:href="#DejaVuSans-30"/>
      </g>
     </g>
    </g>
    <g id="xtick_8">
     <g id="line2d_8">
      <g>
       <use style="stroke:#000000;stroke-width:0.8;" x="367.322275" xlink:href="#mbb967522f4" y="228.14"/>
      </g>
     </g>
     <g id="text_8">
      <!-- 7000 -->
      <defs>
       <path d="M 8.203125 72.90625 
L 55.078125 72.90625 
L 55.078125 68.703125 
L 28.609375 0 
L 18.3125 0 
L 43.21875 64.59375 
L 8.203125 64.59375 
z
" id="DejaVuSans-37"/>
      </defs>
      <g transform="translate(354.597275 242.738437)scale(0.1 -0.1)">
       <use xlink:href="#DejaVuSans-37"/>
       <use x="63.623047" xlink:href="#DejaVuSans-30"/>
       <use x="127.246094" xlink:href="#DejaVuSans-30"/>
       <use x="190.869141" xlink:href="#DejaVuSans-30"/>
      </g>
     </g>
    </g>
    <g id="text_9">
     <!-- Kurtness -->
     <defs>
      <path d="M 9.8125 72.90625 
L 19.671875 72.90625 
L 19.671875 42.09375 
L 52.390625 72.90625 
L 65.09375 72.90625 
L 28.90625 38.921875 
L 67.671875 0 
L 54.6875 0 
L 19.671875 35.109375 
L 19.671875 0 
L 9.8125 0 
z
" id="DejaVuSans-4b"/>
      <path d="M 8.5 21.578125 
L 8.5 54.6875 
L 17.484375 54.6875 
L 17.484375 21.921875 
Q 17.484375 14.15625 20.5 10.265625 
Q 23.53125 6.390625 29.59375 6.390625 
Q 36.859375 6.390625 41.078125 11.03125 
Q 45.3125 15.671875 45.3125 23.6875 
L 45.3125 54.6875 
L 54.296875 54.6875 
L 54.296875 0 
L 45.3125 0 
L 45.3125 8.40625 
Q 42.046875 3.421875 37.71875 1 
Q 33.40625 -1.421875 27.6875 -1.421875 
Q 18.265625 -1.421875 13.375 4.4375 
Q 8.5 10.296875 8.5 21.578125 
z
M 31.109375 56 
z
" id="DejaVuSans-75"/>
      <path d="M 41.109375 46.296875 
Q 39.59375 47.171875 37.8125 47.578125 
Q 36.03125 48 33.890625 48 
Q 26.265625 48 22.1875 43.046875 
Q 18.109375 38.09375 18.109375 28.8125 
L 18.109375 0 
L 9.078125 0 
L 9.078125 54.6875 
L 18.109375 54.6875 
L 18.109375 46.1875 
Q 20.953125 51.171875 25.484375 53.578125 
Q 30.03125 56 36.53125 56 
Q 37.453125 56 38.578125 55.875 
Q 39.703125 55.765625 41.0625 55.515625 
z
" id="DejaVuSans-72"/>
      <path d="M 18.3125 70.21875 
L 18.3125 54.6875 
L 36.8125 54.6875 
L 36.8125 47.703125 
L 18.3125 47.703125 
L 18.3125 18.015625 
Q 18.3125 11.328125 20.140625 9.421875 
Q 21.96875 7.515625 27.59375 7.515625 
L 36.8125 7.515625 
L 36.8125 0 
L 27.59375 0 
Q 17.1875 0 13.234375 3.875 
Q 9.28125 7.765625 9.28125 18.015625 
L 9.28125 47.703125 
L 2.6875 47.703125 
L 2.6875 54.6875 
L 9.28125 54.6875 
L 9.28125 70.21875 
z
" id="DejaVuSans-74"/>
      <path d="M 54.890625 33.015625 
L 54.890625 0 
L 45.90625 0 
L 45.90625 32.71875 
Q 45.90625 40.484375 42.875 44.328125 
Q 39.84375 48.1875 33.796875 48.1875 
Q 26.515625 48.1875 22.3125 43.546875 
Q 18.109375 38.921875 18.109375 30.90625 
L 18.109375 0 
L 9.078125 0 
L 9.078125 54.6875 
L 18.109375 54.6875 
L 18.109375 46.1875 
Q 21.34375 51.125 25.703125 53.5625 
Q 30.078125 56 35.796875 56 
Q 45.21875 56 50.046875 50.171875 
Q 54.890625 44.34375 54.890625 33.015625 
z
" id="DejaVuSans-6e"/>
      <path d="M 56.203125 29.59375 
L 56.203125 25.203125 
L 14.890625 25.203125 
Q 15.484375 15.921875 20.484375 11.0625 
Q 25.484375 6.203125 34.421875 6.203125 
Q 39.59375 6.203125 44.453125 7.46875 
Q 49.3125 8.734375 54.109375 11.28125 
L 54.109375 2.78125 
Q 49.265625 0.734375 44.1875 -0.34375 
Q 39.109375 -1.421875 33.890625 -1.421875 
Q 20.796875 -1.421875 13.15625 6.1875 
Q 5.515625 13.8125 5.515625 26.8125 
Q 5.515625 40.234375 12.765625 48.109375 
Q 20.015625 56 32.328125 56 
Q 43.359375 56 49.78125 48.890625 
Q 56.203125 41.796875 56.203125 29.59375 
z
M 47.21875 32.234375 
Q 47.125 39.59375 43.09375 43.984375 
Q 39.0625 48.390625 32.421875 48.390625 
Q 24.90625 48.390625 20.390625 44.140625 
Q 15.875 39.890625 15.1875 32.171875 
z
" id="DejaVuSans-65"/>
      <path d="M 44.28125 53.078125 
L 44.28125 44.578125 
Q 40.484375 46.53125 36.375 47.5 
Q 32.28125 48.484375 27.875 48.484375 
Q 21.1875 48.484375 17.84375 46.4375 
Q 14.5 44.390625 14.5 40.28125 
Q 14.5 37.15625 16.890625 35.375 
Q 19.28125 33.59375 26.515625 31.984375 
L 29.59375 31.296875 
Q 39.15625 29.25 43.1875 25.515625 
Q 47.21875 21.78125 47.21875 15.09375 
Q 47.21875 7.46875 41.1875 3.015625 
Q 35.15625 -1.421875 24.609375 -1.421875 
Q 20.21875 -1.421875 15.453125 -0.5625 
Q 10.6875 0.296875 5.421875 2 
L 5.421875 11.28125 
Q 10.40625 8.6875 15.234375 7.390625 
Q 20.0625 6.109375 24.8125 6.109375 
Q 31.15625 6.109375 34.5625 8.28125 
Q 37.984375 10.453125 37.984375 14.40625 
Q 37.984375 18.0625 35.515625 20.015625 
Q 33.0625 21.96875 24.703125 23.78125 
L 21.578125 24.515625 
Q 13.234375 26.265625 9.515625 29.90625 
Q 5.8125 33.546875 5.8125 39.890625 
Q 5.8125 47.609375 11.28125 51.796875 
Q 16.75 56 26.8125 56 
Q 31.78125 56 36.171875 55.265625 
Q 40.578125 54.546875 44.28125 53.078125 
z
" id="DejaVuSans-73"/>
     </defs>
     <g transform="translate(188.314063 256.416562)scale(0.1 -0.1)">
      <use xlink:href="#DejaVuSans-4b"/>
      <use x="65.498047" xlink:href="#DejaVuSans-75"/>
      <use x="128.876953" xlink:href="#DejaVuSans-72"/>
      <use x="169.990234" xlink:href="#DejaVuSans-74"/>
      <use x="209.199219" xlink:href="#DejaVuSans-6e"/>
      <use x="272.578125" xlink:href="#DejaVuSans-65"/>
      <use x="334.101562" xlink:href="#DejaVuSans-73"/>
      <use x="386.201172" xlink:href="#DejaVuSans-73"/>
     </g>
    </g>
   </g>
   <g id="matplotlib.axis_2">
    <g id="ytick_1">
     <g id="line2d_9">
      <defs>
       <path d="M 0 0 
L -3.5 0 
" id="m2a495ac43a" style="stroke:#000000;stroke-width:0.8;"/>
      </defs>
      <g>
       <use style="stroke:#000000;stroke-width:0.8;" x="42.828125" xlink:href="#m2a495ac43a" y="228.14"/>
      </g>
     </g>
     <g id="text_10">
      <!-- 0.000 -->
      <defs>
       <path d="M 10.6875 12.40625 
L 21 12.40625 
L 21 0 
L 10.6875 0 
z
" id="DejaVuSans-2e"/>
      </defs>
      <g transform="translate(7.2 231.939219)scale(0.1 -0.1)">
       <use xlink:href="#DejaVuSans-30"/>
       <use x="63.623047" xlink:href="#DejaVuSans-2e"/>
       <use x="95.410156" xlink:href="#DejaVuSans-30"/>
       <use x="159.033203" xlink:href="#DejaVuSans-30"/>
       <use x="222.65625" xlink:href="#DejaVuSans-30"/>
      </g>
     </g>
    </g>
    <g id="ytick_2">
     <g id="line2d_10">
      <g>
       <use style="stroke:#000000;stroke-width:0.8;" x="42.828125" xlink:href="#m2a495ac43a" y="197.521661"/>
      </g>
     </g>
     <g id="text_11">
      <!-- 0.001 -->
      <g transform="translate(7.2 201.32088)scale(0.1 -0.1)">
       <use xlink:href="#DejaVuSans-30"/>
       <use x="63.623047" xlink:href="#DejaVuSans-2e"/>
       <use x="95.410156" xlink:href="#DejaVuSans-30"/>
       <use x="159.033203" xlink:href="#DejaVuSans-30"/>
       <use x="222.65625" xlink:href="#DejaVuSans-31"/>
      </g>
     </g>
    </g>
    <g id="ytick_3">
     <g id="line2d_11">
      <g>
       <use style="stroke:#000000;stroke-width:0.8;" x="42.828125" xlink:href="#m2a495ac43a" y="166.903322"/>
      </g>
     </g>
     <g id="text_12">
      <!-- 0.002 -->
      <g transform="translate(7.2 170.702541)scale(0.1 -0.1)">
       <use xlink:href="#DejaVuSans-30"/>
       <use x="63.623047" xlink:href="#DejaVuSans-2e"/>
       <use x="95.410156" xlink:href="#DejaVuSans-30"/>
       <use x="159.033203" xlink:href="#DejaVuSans-30"/>
       <use x="222.65625" xlink:href="#DejaVuSans-32"/>
      </g>
     </g>
    </g>
    <g id="ytick_4">
     <g id="line2d_12">
      <g>
       <use style="stroke:#000000;stroke-width:0.8;" x="42.828125" xlink:href="#m2a495ac43a" y="136.284984"/>
      </g>
     </g>
     <g id="text_13">
      <!-- 0.003 -->
      <g transform="translate(7.2 140.084202)scale(0.1 -0.1)">
       <use xlink:href="#DejaVuSans-30"/>
       <use x="63.623047" xlink:href="#DejaVuSans-2e"/>
       <use x="95.410156" xlink:href="#DejaVuSans-30"/>
       <use x="159.033203" xlink:href="#DejaVuSans-30"/>
       <use x="222.65625" xlink:href="#DejaVuSans-33"/>
      </g>
     </g>
    </g>
    <g id="ytick_5">
     <g id="line2d_13">
      <g>
       <use style="stroke:#000000;stroke-width:0.8;" x="42.828125" xlink:href="#m2a495ac43a" y="105.666645"/>
      </g>
     </g>
     <g id="text_14">
      <!-- 0.004 -->
      <g transform="translate(7.2 109.465864)scale(0.1 -0.1)">
       <use xlink:href="#DejaVuSans-30"/>
       <use x="63.623047" xlink:href="#DejaVuSans-2e"/>
       <use x="95.410156" xlink:href="#DejaVuSans-30"/>
       <use x="159.033203" xlink:href="#DejaVuSans-30"/>
       <use x="222.65625" xlink:href="#DejaVuSans-34"/>
      </g>
     </g>
    </g>
    <g id="ytick_6">
     <g id="line2d_14">
      <g>
       <use style="stroke:#000000;stroke-width:0.8;" x="42.828125" xlink:href="#m2a495ac43a" y="75.048306"/>
      </g>
     </g>
     <g id="text_15">
      <!-- 0.005 -->
      <g transform="translate(7.2 78.847525)scale(0.1 -0.1)">
       <use xlink:href="#DejaVuSans-30"/>
       <use x="63.623047" xlink:href="#DejaVuSans-2e"/>
       <use x="95.410156" xlink:href="#DejaVuSans-30"/>
       <use x="159.033203" xlink:href="#DejaVuSans-30"/>
       <use x="222.65625" xlink:href="#DejaVuSans-35"/>
      </g>
     </g>
    </g>
    <g id="ytick_7">
     <g id="line2d_15">
      <g>
       <use style="stroke:#000000;stroke-width:0.8;" x="42.828125" xlink:href="#m2a495ac43a" y="44.429967"/>
      </g>
     </g>
     <g id="text_16">
      <!-- 0.006 -->
      <g transform="translate(7.2 48.229186)scale(0.1 -0.1)">
       <use xlink:href="#DejaVuSans-30"/>
       <use x="63.623047" xlink:href="#DejaVuSans-2e"/>
       <use x="95.410156" xlink:href="#DejaVuSans-30"/>
       <use x="159.033203" xlink:href="#DejaVuSans-30"/>
       <use x="222.65625" xlink:href="#DejaVuSans-36"/>
      </g>
     </g>
    </g>
    <g id="ytick_8">
     <g id="line2d_16">
      <g>
       <use style="stroke:#000000;stroke-width:0.8;" x="42.828125" xlink:href="#m2a495ac43a" y="13.811629"/>
      </g>
     </g>
     <g id="text_17">
      <!-- 0.007 -->
      <g transform="translate(7.2 17.610847)scale(0.1 -0.1)">
       <use xlink:href="#DejaVuSans-30"/>
       <use x="63.623047" xlink:href="#DejaVuSans-2e"/>
       <use x="95.410156" xlink:href="#DejaVuSans-30"/>
       <use x="159.033203" xlink:href="#DejaVuSans-30"/>
       <use x="222.65625" xlink:href="#DejaVuSans-37"/>
      </g>
     </g>
    </g>
   </g>
   <g id="line2d_17">
    <path clip-path="url(#pb8f256acba)" d="M 58.046307 228.14 
L 60.442871 223.91364 
L 62.839435 228.14 
L 65.235999 226.176881 
L 67.632563 228.14 
L 70.029127 227.005901 
L 72.425691 228.14 
L 74.822255 227.407431 
L 77.218819 228.14 
L 79.615383 227.632021 
L 82.011947 228.14 
L 84.408512 227.769667 
L 86.805076 228.14 
L 89.20164 227.859645 
L 91.598204 228.14 
L 93.994768 227.921384 
L 96.391332 228.14 
L 98.787896 227.965391 
L 101.18446 228.14 
L 103.581024 227.997744 
L 105.977588 228.14 
L 108.374152 228.022146 
L 110.770716 228.14 
L 113.16728 228.040958 
L 115.563844 228.14 
L 117.960408 228.055735 
L 120.356973 228.14 
L 122.753537 228.067535 
L 125.150101 228.14 
L 127.546665 228.077098 
L 129.943229 228.14 
L 134.736357 228.14 
L 141.926049 228.09697 
L 149.115741 228.14 
L 156.305434 228.109123 
L 163.495126 228.14 
L 175.477946 228.119529 
L 187.460766 228.14 
L 204.236715 228.13058 
L 232.995484 228.14 
L 278.530201 228.022223 
L 280.926765 228.14 
L 283.323329 227.97752 
L 285.719893 228.14 
L 288.116457 227.90997 
L 290.513021 228.14 
L 292.909585 227.802607 
L 295.306149 228.14 
L 297.702713 227.62076 
L 300.099277 228.14 
L 302.495842 227.29047 
L 304.892406 228.14 
L 307.28897 226.79944 
L 309.685534 226.505819 
L 312.082098 207.389017 
L 314.478662 228.14 
L 316.875226 225.222921 
L 319.27179 228.14 
L 321.668354 226.939341 
L 324.064918 228.14 
L 326.461482 227.591004 
L 328.858046 228.14 
L 331.25461 227.951313 
L 333.651174 228.14 
L 336.047738 228.14 
L 338.444303 227.934946 
L 340.840867 228.14 
L 343.237431 227.647582 
L 345.633995 228.14 
L 348.030559 227.234002 
L 350.427123 228.14 
L 352.823687 226.490559 
L 355.220251 228.14 
L 357.616815 224.795616 
L 360.013379 228.14 
L 362.409943 201.910561 
L 362.409943 201.910561 
" style="fill:none;stroke:#ffa500;stroke-linecap:square;stroke-width:1.5;"/>
   </g>
   <g id="patch_53">
    <path d="M 42.828125 228.14 
L 42.828125 10.7 
" style="fill:none;stroke:#000000;stroke-linecap:square;stroke-linejoin:miter;stroke-width:0.8;"/>
   </g>
   <g id="patch_54">
    <path d="M 377.628125 228.14 
L 377.628125 10.7 
" style="fill:none;stroke:#000000;stroke-linecap:square;stroke-linejoin:miter;stroke-width:0.8;"/>
   </g>
   <g id="patch_55">
    <path d="M 42.828125 228.14 
L 377.628125 228.14 
" style="fill:none;stroke:#000000;stroke-linecap:square;stroke-linejoin:miter;stroke-width:0.8;"/>
   </g>
   <g id="patch_56">
    <path d="M 42.828125 10.7 
L 377.628125 10.7 
" style="fill:none;stroke:#000000;stroke-linecap:square;stroke-linejoin:miter;stroke-width:0.8;"/>
   </g>
  </g>
 </g>
 <defs>
  <clipPath id="pb8f256acba">
   <rect height="217.44" width="334.8" x="42.828125" y="10.7"/>
  </clipPath>
 </defs>
</svg>
